<svg xmlns="http://www.w3.org/2000/svg" version="1.0" width="300.000000pt" height="300.000000pt" viewBox="0 0 300.000000 300.000000" preserveAspectRatio="xMidYMid meet">
<metadata>
Created by potrace 1.10, written by Peter Selinger 2001-2011
</metadata>
<g transform="translate(0.000000,300.000000) scale(0.100000,-0.100000)" fill="#ffffff" stroke="none">
<path d="M1861 2720 c-23 -11 -61 -34 -82 -51 l-40 -31 -78 25 c-100 34 -190 43 -265 27 -52 -11 -59 -15 -72 -46 -10 -23 -23 -36 -42 -40 -145 -33 -243 -84 -357 -186 -32 -29 -73 -53 -115 -68 -93 -33 -115 -57 -114 -124 0 -30 6 -61 13 -70 11 -13 7 -29 -22 -98 -20 -46 -42 -107 -51 -136 -8 -29 -27 -67 -41 -83 -14 -17 -28 -42 -31 -55 -11 -41 2 -116 22 -131 24 -18 125 -17 150 2 10 8 34 15 51 15 31 0 32 -1 23 -26 -14 -35 -13 -168 1 -214 17 -55 77 -130 133 -165 43 -26 60 -30 129 -32 114 -2 112 -6 -18 -39 -11 -3 -84 -26 -161 -50 -165 -53 -190 -72 -203 -151 -7 -45 -15 -57 -69 -108 -42 -39 -72 -78 -94 -123 -31 -63 -33 -73 -32 -172 0 -87 4 -113 23 -153 32 -69 83 -121 144 -148 45 -21 67 -24 172 -24 132 1 182 12 323 72 l83 35 117 -13 c147 -16 393 -16 495 0 161 26 361 117 452 206 55 53 97 126 109 184 3 18 24 60 45 92 44 66 56 116 46 197 -6 51 -12 61 -69 117 -65 66 -192 137 -269 151 -29 5 -41 13 -48 33 -6 14 -20 36 -31 48 l-21 22 29 6 c59 13 109 41 156 87 125 121 142 321 38 426 -50 50 -53 85 -10 107 16 8 34 24 40 34 16 32 11 149 -10 241 -48 202 -121 332 -225 398 -56 35 -162 41 -224 12z m217 -27 c115 -66 230 -318 235 -516 3 -98 -6 -123 -43 -130 -28 -6 -30 -10 -30 -50 0 -38 6 -49 44 -90 51 -52 62 -96 53 -201 -6 -75 -39 -136 -106 -199 -53 -50 -94 -71 -160 -82 -43 -7 -52 -27 -15 -33 25 -5 44 -30 44 -59 0 -13 6 -25 13 -27 144 -42 239 -90 313 -158 56 -51 67 -82 62 -171 -3 -62 -8 -81 -33 -117 -43 -61 -51 -78 -69 -141 -9 -31 -28 -71 -43 -90 -101 -129 -313 -231 -537 -259 -111 -14 -373 -9 -492 10 -67 10 -74 10 -125 -13 -161 -73 -236 -90 -377 -85 -92 3 -114 8 -160 31 -100 52 -146 150 -140 300 4 117 27 167 119 259 59 59 69 74 75 115 11 75 38 94 205 147 79 25 167 51 194 57 55 13 75 25 75 44 0 10 -22 13 -82 12 -54 0 -96 5 -119 15 -47 21 -112 85 -140 139 -29 58 -37 167 -16 228 9 25 14 48 11 53 -9 15 -77 8 -96 -9 -24 -21 -117 -24 -141 -4 -12 10 -17 30 -17 72 0 51 4 62 25 81 16 14 34 50 51 107 14 47 39 114 56 149 27 58 28 65 14 81 -20 22 -22 114 -2 134 8 7 48 26 90 41 52 19 90 41 118 68 93 89 244 171 341 184 32 4 50 12 54 23 16 52 26 59 88 71 53 10 76 9 146 -5 46 -9 106 -27 132 -40 l48 -23 27 25 c98 92 211 113 310 56z"/>
<path d="M1889 2622 c-42 -27 -92 -78 -114 -117 -10 -17 -15 -15 -60 18 -28 19 -73 44 -101 56 -59 23 -160 37 -199 27 -32 -8 -23 -26 13 -26 55 -1 162 -30 238 -64 42 -20 75 -38 73 -40 -2 -3 -42 7 -89 21 -110 33 -282 37 -375 9 -95 -28 -194 -86 -266 -153 -57 -54 -76 -66 -147 -88 -53 -17 -82 -31 -82 -40 0 -20 20 -19 76 5 26 11 49 19 51 16 2 -2 -12 -25 -32 -51 -52 -69 -131 -236 -151 -322 -15 -61 -23 -78 -51 -99 -33 -25 -44 -54 -21 -54 7 0 26 13 43 29 28 27 33 29 75 21 25 -5 81 -9 126 -10 l81 0 12 -37 c7 -21 15 -44 17 -50 4 -9 -4 -13 -25 -13 -47 0 -82 -37 -88 -92 -9 -75 3 -112 54 -168 71 -79 128 -98 192 -65 27 14 33 12 91 -17 34 -17 93 -36 131 -42 55 -8 69 -14 69 -28 0 -22 16 -23 35 -4 10 9 25 12 47 7 31 -6 54 -6 71 -1 14 5 22 7 62 14 22 5 50 14 61 22 19 11 24 10 45 -12 12 -13 28 -24 35 -24 6 0 17 -6 23 -14 9 -11 -3 -14 -66 -20 -110 -9 -336 -46 -347 -57 -21 -19 7 -18 155 5 85 14 182 28 217 32 44 5 62 11 62 21 0 8 4 12 8 9 4 -2 17 9 27 25 20 30 29 35 78 43 59 10 71 -13 38 -76 -11 -19 -17 -38 -14 -42 9 -9 -18 -36 -30 -29 -6 4 -8 0 -4 -10 4 -11 1 -17 -8 -17 -8 0 -19 -9 -25 -20 -8 -15 -8 -20 2 -20 9 0 9 -3 -2 -9 -8 -6 -18 -7 -22 -5 -7 5 -9 -1 -12 -45 -1 -8 -10 -17 -22 -21 -18 -7 -20 -5 -16 21 2 16 1 41 -2 55 l-7 27 -102 -7 c-56 -3 -158 -15 -227 -25 -68 -11 -126 -18 -128 -16 -2 2 1 19 6 39 20 71 -6 34 -38 -54 l-32 -90 -48 0 -48 0 15 68 c21 91 66 170 109 188 42 18 64 18 64 0 0 -20 30 -29 37 -10 3 9 -3 25 -15 37 -19 19 -25 20 -74 8 -69 -15 -77 -21 -93 -67 -13 -37 -14 -38 -91 -55 -110 -24 -335 -98 -358 -118 -15 -13 -17 -26 -13 -67 5 -46 3 -53 -16 -61 -41 -19 -123 -101 -150 -151 -49 -91 -46 -189 10 -273 81 -123 265 -129 500 -19 l87 41 124 -16 c156 -20 412 -21 512 -1 199 38 392 152 449 265 11 21 23 59 27 83 4 23 17 54 29 68 35 39 65 93 65 118 0 83 -158 199 -326 238 l-72 17 5 37 c6 46 -8 53 -89 44 -43 -5 -63 -12 -76 -29 -10 -12 -30 -24 -45 -27 -23 -5 -30 -1 -38 19 -5 13 -9 26 -9 27 0 2 28 22 63 44 34 22 84 63 112 91 40 41 56 51 82 51 96 0 219 114 238 222 10 51 -9 101 -52 139 -33 28 -41 31 -85 27 -43 -5 -48 -3 -43 13 4 10 1 44 -4 75 -6 32 -8 60 -5 63 6 6 49 -40 71 -75 10 -16 12 -8 12 46 1 73 -24 138 -85 222 l-35 49 22 30 21 31 35 -34 c29 -28 77 -113 109 -193 7 -16 9 -12 12 20 10 109 -66 332 -150 437 -33 42 -93 78 -131 78 -13 0 -43 -13 -68 -28z m136 -44 c20 -17 50 -52 68 -77 31 -46 97 -193 97 -220 0 -8 -18 7 -41 33 -49 55 -78 60 -109 16 -18 -25 -24 -28 -40 -18 -37 23 -33 -3 7 -45 47 -49 74 -92 102 -164 22 -55 19 -62 -13 -38 -49 37 -133 -2 -173 -79 l-16 -31 -16 35 c-9 22 -15 67 -15 121 -1 72 2 90 18 108 14 15 16 25 9 32 -8 8 -14 5 -22 -9 -36 -67 -312 -271 -457 -338 -70 -33 -253 -94 -281 -94 -8 0 -11 13 -10 35 2 35 3 36 100 75 110 44 325 152 359 180 52 42 3 27 -113 -34 -114 -60 -339 -160 -344 -154 -2 2 -10 20 -18 41 -9 20 -21 37 -26 37 -14 0 -14 -1 4 -43 8 -20 15 -38 15 -41 0 -2 -27 -13 -61 -25 l-60 -20 3 34 c4 47 -16 45 -22 -2 l-5 -38 -85 -17 c-47 -9 -96 -19 -110 -22 -14 -4 -18 -3 -10 0 8 4 21 15 30 24 43 49 265 210 378 275 29 18 44 45 24 45 -29 0 -292 -185 -388 -273 -30 -27 -57 -48 -59 -45 -16 16 109 278 179 375 l37 52 107 25 c193 45 322 59 485 53 165 -5 211 -20 95 -30 -77 -7 -227 -46 -281 -74 -32 -16 -93 -63 -83 -63 3 0 50 17 103 39 124 49 222 71 346 78 105 6 120 18 51 41 -169 57 -436 54 -685 -8 -45 -11 -86 -20 -92 -20 -6 0 18 23 54 50 131 103 266 146 424 136 88 -5 238 -41 295 -71 33 -17 53 -2 25 19 -16 12 -16 16 10 54 35 53 112 111 147 112 17 0 41 -12 63 -32z m-173 -472 c-3 -69 0 -94 17 -132 13 -27 18 -56 15 -70 -4 -15 -2 -24 5 -24 6 0 11 12 12 28 0 27 0 27 10 3 5 -13 30 -46 56 -75 83 -92 94 -159 41 -257 -69 -130 -259 -262 -416 -289 -122 -20 -301 17 -399 83 -97 66 -137 186 -95 284 26 61 38 123 24 123 -6 0 -20 -31 -32 -69 -17 -57 -23 -68 -38 -64 -13 3 -23 22 -32 56 -7 29 -13 54 -12 57 1 5 56 15 138 25 22 3 61 11 86 19 45 13 46 13 57 -10 19 -43 91 -27 91 20 0 10 -3 16 -7 13 -3 -4 -12 -2 -20 5 -10 8 -19 6 -38 -12 -27 -25 -32 -21 -15 11 12 21 40 25 58 7 9 -9 12 -9 12 0 0 7 11 12 25 12 14 0 25 5 25 10 0 6 7 13 16 17 33 12 171 95 235 140 50 35 184 161 184 172 0 1 -1 -37 -3 -83z m192 -68 c3 -13 9 -57 12 -98 5 -72 4 -76 -20 -93 -26 -18 -26 -18 -58 19 -63 71 -62 69 -28 118 28 42 65 76 81 76 4 0 9 -10 13 -22z m-932 -203 c-3 -28 -9 -35 -26 -35 -11 0 -38 -3 -58 -6 -35 -6 -38 -5 -38 18 0 22 7 27 53 40 74 22 73 22 69 -17z m1081 5 c48 -38 55 -103 20 -172 -34 -69 -121 -138 -173 -138 -25 0 -25 -3 5 62 30 63 31 118 6 175 -18 39 -18 42 -3 56 49 42 105 48 145 17z m-1223 -30 c0 -19 -6 -20 -92 -19 -86 1 -89 2 -48 11 25 5 61 13 80 18 54 12 60 11 60 -10z m66 -188 c6 -4 14 -33 17 -65 6 -61 34 -125 70 -165 18 -20 19 -24 7 -32 -46 -30 -120 3 -177 78 -28 37 -33 52 -33 98 0 41 5 59 20 74 20 20 74 27 96 12z m1087 -422 c42 -10 89 -26 104 -35 l28 -15 -30 7 c-16 5 -78 8 -136 8 l-105 0 15 27 c19 33 26 34 124 8z m144 -75 c60 -30 123 -95 123 -128 0 -26 -25 -83 -41 -92 -12 -8 -12 -4 6 38 21 52 19 62 -22 103 -89 89 -231 114 -347 61 -64 -29 -80 -29 -51 3 50 55 232 63 332 15z m-59 -20 c28 -9 74 -34 102 -56 53 -42 63 -67 13 -31 -43 30 -118 52 -178 52 -59 0 -191 -38 -242 -70 -40 -24 -41 -18 -7 27 58 76 198 111 312 78z m-986 -17 c-6 -7 -13 -30 -17 -50 -4 -21 -9 -38 -11 -38 -2 0 -27 17 -56 37 l-52 38 49 12 c71 16 100 16 87 1z m588 -32 c0 -13 -3 -38 -6 -55 l-7 -31 -77 6 c-52 5 -128 1 -225 -11 -97 -12 -149 -15 -156 -8 -18 18 1 61 29 67 72 15 237 38 322 45 52 5 101 9 108 10 6 0 12 -10 12 -23z m-698 -26 c57 -38 72 -55 64 -75 -11 -31 -78 -18 -149 28 -36 23 -66 45 -66 48 -1 8 57 27 85 28 11 1 41 -13 66 -29z m1113 -9 c34 -20 80 -91 90 -140 10 -48 -8 -32 -30 26 -22 58 -50 99 -76 114 -14 7 -10 -3 14 -34 67 -87 75 -203 20 -280 -70 -98 -223 -182 -403 -220 -156 -33 -554 -20 -567 19 -2 6 9 17 24 25 45 23 331 240 423 321 90 80 188 136 305 175 79 26 149 24 200 -6z m-1272 -12 c12 -7 39 -26 61 -42 37 -29 38 -31 16 -39 -16 -6 -29 -3 -46 11 -14 11 -47 25 -74 32 -57 15 -62 23 -22 37 36 14 40 14 65 1z m1386 -24 c16 -15 8 -45 -12 -45 -7 0 -21 16 -30 36 l-17 35 22 -6 c13 -4 29 -13 37 -20z m-1470 -19 c9 -11 7 -15 -8 -19 -24 -6 -46 7 -37 22 10 15 31 14 45 -3z m881 -25 c0 -17 -31 -21 -80 -10 -28 6 -50 13 -50 15 0 2 29 4 65 4 36 0 65 -4 65 -9z m-789 -12 c18 -9 13 -15 -55 -48 -41 -21 -97 -56 -124 -79 -52 -44 -109 -118 -98 -129 3 -3 7 -4 9 -2 57 83 161 170 250 208 75 33 155 42 359 42 174 0 400 -20 417 -36 11 -12 -189 -173 -344 -277 -287 -191 -527 -261 -660 -192 -82 43 -118 168 -75 262 24 53 114 148 186 198 53 37 70 62 20 28 -15 -9 -29 -14 -32 -11 -9 9 53 37 69 31 8 -3 18 -1 22 5 8 14 31 14 56 0z"/>
<path d="M2035 2446 c-48 -21 -122 -119 -112 -149 2 -7 11 4 20 23 23 47 68 94 106 110 17 7 31 16 31 21 0 12 -9 11 -45 -5z"/>
<path d="M1785 2247 c-44 -31 -55 -43 -42 -45 23 -5 127 57 127 75 0 21 -21 13 -85 -30z"/>
<path d="M1251 2225 c-34 -39 -44 -68 -39 -111 l4 -29 17 40 c10 22 34 56 54 77 34 35 37 58 8 58 -7 0 -27 -16 -44 -35z"/>
<path d="M1668 2169 c-39 -20 -60 -61 -41 -80 7 -7 30 9 67 45 49 48 54 56 34 56 -13 -1 -40 -10 -60 -21z"/>
<path d="M1387 2136 c-70 -24 -130 -46 -134 -50 -11 -10 5 -19 19 -10 7 5 18 9 23 10 25 5 193 64 220 78 53 28 4 17 -128 -28z"/>
<path d="M1952 2173 c-19 -7 -4 -23 23 -23 29 0 41 16 19 24 -18 7 -23 7 -42 -1z"/>
<path d="M1947 2103 c-12 -11 -8 -33 6 -33 8 0 22 9 32 20 18 19 17 20 -7 20 -13 0 -28 -3 -31 -7z"/>
<path d="M1153 2051 c-60 -24 -65 -34 -7 -16 27 8 52 15 57 15 4 0 7 5 7 10 0 13 -5 12 -57 -9z"/>
<path d="M1770 2069 c-14 -11 -34 -28 -45 -38 -36 -32 -139 -97 -190 -119 -44 -20 -46 -22 -15 -16 50 9 155 73 225 138 60 55 73 74 25 35z"/>
<path d="M1672 1928 c-7 -7 -12 -21 -12 -33 0 -29 19 -45 52 -45 17 0 31 7 38 21 24 43 -43 92 -78 57z"/>
<path d="M1811 1871 c-15 -10 -8 -41 9 -41 15 0 25 29 14 40 -5 5 -15 5 -23 1z"/>
<path d="M1463 1851 c-54 -34 -70 -93 -37 -139 22 -32 37 -17 19 18 -21 40 -19 57 10 85 50 51 135 24 135 -43 0 -15 5 -22 13 -19 19 7 10 59 -16 84 -33 33 -84 39 -124 14z"/>
<path d="M1531 1753 c-12 -14 -19 -28 -17 -31 7 -6 66 37 66 49 0 18 -29 8 -49 -18z"/>
<path d="M1740 1772 c0 -4 5 -13 10 -18 14 -14 -34 -80 -92 -127 -58 -48 -126 -77 -194 -84 -73 -8 -70 -27 4 -21 106 8 235 90 299 191 20 32 27 36 39 26 22 -18 30 -2 9 21 -17 19 -75 29 -75 12z"/>
<path d="M1253 1674 c-9 -23 19 -37 37 -18 13 13 13 16 0 24 -21 14 -30 12 -37 -6z"/>
<path d="M1197 1624 c-14 -14 -7 -35 11 -32 9 2 17 10 17 17 0 16 -18 25 -28 15z"/>
<path d="M1123 1574 c-8 -21 13 -42 28 -27 13 13 5 43 -11 43 -6 0 -13 -7 -17 -16z"/>
<path d="M1893 1505 c-29 -29 -65 -59 -80 -67 -15 -8 -37 -19 -48 -25 -49 -28 -116 -53 -185 -72 -56 -15 -67 -20 -42 -20 36 -1 161 38 220 68 55 28 140 95 174 135 43 53 21 42 -39 -19z"/>
<path d="M2150 841 c-22 -21 -44 -50 -50 -65 -13 -35 -13 -106 0 -106 6 0 10 13 10 29 0 41 11 91 20 91 5 0 6 -8 3 -18 -6 -25 14 -72 32 -72 8 0 22 11 30 24 19 29 11 70 -16 90 -21 14 -13 26 24 39 18 7 15 27 -4 27 -5 0 -27 -17 -49 -39z m28 -70 c2 -12 1 -30 -3 -39 -5 -14 -7 -14 -15 -2 -15 23 -12 72 3 68 6 -3 13 -15 15 -27z"/>
<path d="M1975 594 c-27 -13 -39 -21 -25 -18 29 7 100 43 85 43 -5 0 -32 -12 -60 -25z"/>
<path d="M646 572 c-3 -6 5 -17 19 -26 16 -10 25 -26 25 -42 0 -36 18 -64 40 -64 25 0 27 45 4 78 -14 20 -14 22 3 22 29 0 64 -29 80 -68 10 -23 18 -31 25 -24 13 13 -13 64 -49 92 -20 16 -37 20 -63 17 -20 -2 -44 2 -57 10 -12 8 -24 10 -27 5z"/>
<path d="M1826 1174 c-9 -24 -7 -54 4 -54 6 0 10 16 10 35 0 38 -4 44 -14 19z"/>
</g>
</svg>
